<svg width="16" height="16" viewBox="0 0 16 16" fill="none" xmlns="http://www.w3.org/2000/svg">
<g id="vuesax/bold/buildings-2">
<g id="buildings-2">
<path id="Vector" d="M7.06634 2.76671C7.06634 2.89337 6.95967 3.00004 6.83301 3.00004H6.07967C4.63967 3.00004 3.46634 4.17337 3.46634 5.61337V11.7667C3.46634 11.8934 3.35967 12 3.23301 12H2.76634C1.97301 12 1.33301 11.36 1.33301 10.5667V2.76671C1.33301 1.97337 1.97301 1.33337 2.76634 1.33337H5.63301C6.42634 1.33337 7.06634 1.97337 7.06634 2.76671Z" fill="#3B82F6"/>
<path id="Vector_2" d="M14.6669 2.76671V10.5667C14.6669 11.36 14.0269 12 13.2336 12H12.8136C12.6869 12 12.5803 11.8934 12.5803 11.7667V5.61337C12.5803 4.17337 11.4069 3.00004 9.96693 3.00004H9.16693C9.04026 3.00004 8.93359 2.89337 8.93359 2.76671C8.93359 1.97337 9.57359 1.33337 10.3669 1.33337H13.2336C14.0269 1.33337 14.6669 1.97337 14.6669 2.76671Z" fill="#3B82F6"/>
<path id="Vector_3" d="M9.9668 4H6.08013C5.1868 4 4.4668 4.72 4.4668 5.61333V13.0533C4.4668 13.9467 5.1868 14.6667 6.08013 14.6667H7.1668C7.35346 14.6667 7.50013 14.52 7.50013 14.3333V12.6667C7.50013 12.3933 7.7268 12.1667 8.00013 12.1667C8.27346 12.1667 8.50013 12.3933 8.50013 12.6667V14.3333C8.50013 14.52 8.6468 14.6667 8.83346 14.6667H9.97346C10.8601 14.6667 11.5801 13.9467 11.5801 13.06V5.61333C11.5801 4.72 10.8601 4 9.9668 4ZM9.33346 9.83333H6.6668C6.39346 9.83333 6.1668 9.60667 6.1668 9.33333C6.1668 9.06 6.39346 8.83333 6.6668 8.83333H9.33346C9.6068 8.83333 9.83346 9.06 9.83346 9.33333C9.83346 9.60667 9.6068 9.83333 9.33346 9.83333ZM9.33346 7.83333H6.6668C6.39346 7.83333 6.1668 7.60667 6.1668 7.33333C6.1668 7.06 6.39346 6.83333 6.6668 6.83333H9.33346C9.6068 6.83333 9.83346 7.06 9.83346 7.33333C9.83346 7.60667 9.6068 7.83333 9.33346 7.83333Z" fill="#3B82F6"/>
</g>
</g>
</svg>
