<svg xmlns="http://www.w3.org/2000/svg" width="20" height="20" viewBox="0 0 20 20" fill="none">
<path d="M10.9054 17.8232L11.3357 18.0778L10.9054 17.8232ZM11.3571 17.0599L10.9269 16.8053L11.3571 17.0599ZM8.64251 17.0599L8.21223 17.3146L8.64251 17.0599ZM9.09426 17.8232L9.52454 17.5685H9.52453L9.09426 17.8232ZM1.98367 13.2613L2.44561 13.0699H2.44561L1.98367 13.2613ZM6.49115 15.8263L6.48254 16.3262L6.49115 15.8263ZM4.23866 15.5162L4.04731 15.9782L4.04732 15.9782L4.23866 15.5162ZM18.016 13.2613L18.4779 13.4526L18.016 13.2613ZM13.5085 15.8263L13.4999 15.3264L13.5085 15.8263ZM15.761 15.5162L15.9524 15.9782H15.9524L15.761 15.5162ZM16.3436 2.28075L16.0823 2.70707V2.70707L16.3436 2.28075ZM17.7192 3.65634L18.1455 3.39509V3.39509L17.7192 3.65634ZM3.65609 2.28075L3.39484 1.85443V1.85443L3.65609 2.28075ZM2.2805 3.65634L1.85418 3.39509L2.2805 3.65634ZM7.8355 16.0083L8.08688 15.5761L8.08688 15.5761L7.8355 16.0083ZM11.3357 18.0778L11.7874 17.3146L10.9269 16.8053L10.4751 17.5685L11.3357 18.0778ZM8.21223 17.3146L8.66398 18.0778L9.52453 17.5685L9.07279 16.8053L8.21223 17.3146ZM10.4751 17.5685C10.2661 17.9216 9.73357 17.9216 9.52454 17.5685L8.66398 18.0778C9.26023 19.0852 10.7394 19.0852 11.3357 18.0778L10.4751 17.5685ZM8.74984 2.16675H11.2498V1.16675H8.74984V2.16675ZM17.8332 8.75008V9.58342H18.8332V8.75008H17.8332ZM2.1665 9.58342V8.75008H1.1665V9.58342H2.1665ZM1.1665 9.58342C1.1665 10.5473 1.16623 11.2952 1.20731 11.8973C1.24869 12.5038 1.33371 12.9987 1.52173 13.4526L2.44561 13.0699C2.31647 12.7581 2.2429 12.3848 2.20499 11.8292C2.16677 11.2691 2.1665 10.561 2.1665 9.58342H1.1665ZM6.49977 15.3264C5.45358 15.3083 4.88381 15.2423 4.43 15.0543L4.04732 15.9782C4.69401 16.2461 5.43646 16.3082 6.48254 16.3262L6.49977 15.3264ZM1.52173 13.4526C1.99537 14.5961 2.90385 15.5045 4.04731 15.9782L4.43 15.0543C3.53156 14.6822 2.81776 13.9684 2.44561 13.0699L1.52173 13.4526ZM17.8332 9.58342C17.8332 10.561 17.8329 11.2691 17.7947 11.8292C17.7568 12.3848 17.6832 12.7581 17.5541 13.0699L18.4779 13.4526C18.666 12.9987 18.751 12.5038 18.7924 11.8973C18.8334 11.2952 18.8332 10.5473 18.8332 9.58342H17.8332ZM13.5171 16.3262C14.5632 16.3082 15.3057 16.2461 15.9524 15.9782L15.5697 15.0543C15.1159 15.2423 14.5461 15.3083 13.4999 15.3264L13.5171 16.3262ZM17.5541 13.0699C17.1819 13.9684 16.4681 14.6822 15.5697 15.0543L15.9524 15.9782C17.0958 15.5045 18.0043 14.5961 18.4779 13.4526L17.5541 13.0699ZM11.2498 2.16675C12.6234 2.16675 13.6185 2.16728 14.3966 2.24125C15.1672 2.31452 15.6731 2.4563 16.0823 2.70707L16.6048 1.85443C16.0121 1.49119 15.3351 1.32597 14.4913 1.24574C13.6549 1.16622 12.6041 1.16675 11.2498 1.16675V2.16675ZM18.8332 8.75008C18.8332 7.39583 18.8337 6.34504 18.7542 5.50867C18.6739 4.66486 18.5087 3.98783 18.1455 3.39509L17.2929 3.91759C17.5436 4.3268 17.6854 4.83271 17.7587 5.60332C17.8326 6.38137 17.8332 7.37647 17.8332 8.75008H18.8332ZM16.0823 2.70707C16.5757 3.0094 16.9905 3.42422 17.2929 3.91759L18.1455 3.39509C17.7607 2.76716 17.2328 2.23922 16.6048 1.85443L16.0823 2.70707ZM8.74984 1.16675C7.39559 1.16675 6.34479 1.16622 5.50842 1.24574C4.66462 1.32597 3.98759 1.49119 3.39484 1.85443L3.91734 2.70707C4.32656 2.4563 4.83247 2.31452 5.60308 2.24125C6.38113 2.16728 7.37623 2.16675 8.74984 2.16675V1.16675ZM2.1665 8.75008C2.1665 7.37647 2.16703 6.38137 2.24101 5.60332C2.31428 4.83271 2.45606 4.3268 2.70682 3.91759L1.85418 3.39509C1.49095 3.98783 1.32573 4.66486 1.2455 5.50867C1.16598 6.34504 1.1665 7.39583 1.1665 8.75008H2.1665ZM3.39484 1.85443C2.76692 2.23922 2.23898 2.76716 1.85418 3.39509L2.70682 3.91759C3.00916 3.42422 3.42397 3.00941 3.91734 2.70707L3.39484 1.85443ZM9.07279 16.8053C8.90239 16.5174 8.75729 16.2712 8.6172 16.079C8.47096 15.8783 8.30855 15.705 8.08688 15.5761L7.58412 16.4405C7.64386 16.4752 7.70975 16.5317 7.80907 16.668C7.91453 16.8127 8.03223 17.0105 8.21223 17.3146L9.07279 16.8053ZM6.48254 16.3262C6.84613 16.3325 7.08469 16.3371 7.2685 16.3575C7.44303 16.3768 7.52602 16.4067 7.58412 16.4405L8.08688 15.5761C7.86356 15.4462 7.62868 15.3912 7.37856 15.3635C7.1377 15.3369 6.84479 15.3323 6.49977 15.3264L6.48254 16.3262ZM11.7874 17.3146C11.9674 17.0105 12.0851 16.8127 12.1906 16.668C12.2899 16.5317 12.3558 16.4752 12.4155 16.4405L11.9128 15.5761C11.6911 15.705 11.5287 15.8783 11.3824 16.079C11.2423 16.2712 11.0972 16.5174 10.9269 16.8053L11.7874 17.3146ZM13.4999 15.3264C13.1548 15.3323 12.8619 15.3369 12.6211 15.3635C12.371 15.3912 12.1361 15.4462 11.9128 15.5761L12.4155 16.4405C12.4736 16.4067 12.5566 16.3768 12.7311 16.3575C12.915 16.3371 13.1535 16.3325 13.5171 16.3262L13.4999 15.3264Z" fill="#6B7280"/>
<path d="M6.6665 7.5H13.3332" stroke="#6B7280" stroke-linecap="round"/>
<path d="M6.6665 10.4167H11.2498" stroke="#6B7280" stroke-linecap="round"/>
</svg>