<svg xmlns="http://www.w3.org/2000/svg" width="24" height="24" viewBox="0 0 24 24" fill="none">
<path d="M2 7C2 4.23858 4.23858 2 7 2H17C19.7614 2 22 4.23858 22 7V17C22 19.7614 19.7614 22 17 22H7C4.23858 22 2 19.7614 2 17V7Z" fill="white"/>
<path fill-rule="evenodd" clip-rule="evenodd" d="M17 3.5H7C5.067 3.5 3.5 5.067 3.5 7V17C3.5 18.933 5.067 20.5 7 20.5H17C18.933 20.5 20.5 18.933 20.5 17V7C20.5 5.067 18.933 3.5 17 3.5ZM7 2C4.23858 2 2 4.23858 2 7V17C2 19.7614 4.23858 22 7 22H17C19.7614 22 22 19.7614 22 17V7C22 4.23858 19.7614 2 17 2H7Z" fill="#D1D5DB"/>
</svg>