<svg xmlns="http://www.w3.org/2000/svg" width="46" height="46" viewBox="0 0 46 46" fill="none">
<rect width="46" height="46" rx="7.66667" fill="#E5E7EB"/>
<path d="M20.1532 16.4084C21.4198 14.1361 22.0531 13 23 13C23.9469 13 24.5802 14.1361 25.8468 16.4084L26.1745 16.9962C26.5345 17.6419 26.7144 17.9648 26.9951 18.1778C27.2757 18.3908 27.6251 18.4699 28.3241 18.628L28.9605 18.772C31.4201 19.3286 32.65 19.6068 32.9426 20.5477C33.2352 21.4886 32.3968 22.4691 30.7199 24.4299L30.2861 24.9372C29.8096 25.4944 29.5713 25.773 29.4641 26.1177C29.357 26.4624 29.393 26.8341 29.465 27.5776L29.5306 28.2544C29.7841 30.8706 29.9109 32.1787 29.1449 32.7602C28.3788 33.3417 27.2273 32.8115 24.9243 31.7512L24.3285 31.4768C23.6741 31.1755 23.3469 31.0248 23 31.0248C22.6531 31.0248 22.3259 31.1755 21.6715 31.4768L21.0757 31.7512C18.7727 32.8115 17.6212 33.3417 16.8551 32.7602C16.0891 32.1787 16.2159 30.8706 16.4694 28.2544L16.535 27.5776C16.607 26.8341 16.643 26.4624 16.5359 26.1177C16.4287 25.773 16.1904 25.4944 15.7139 24.9372L15.2801 24.4299C13.6032 22.4691 12.7648 21.4886 13.0574 20.5477C13.35 19.6068 14.5799 19.3286 17.0395 18.772L17.6759 18.628C18.3749 18.4699 18.7243 18.3908 19.0049 18.1778C19.2856 17.9648 19.4655 17.6419 19.8255 16.9962L20.1532 16.4084Z" fill="#9CA3AF"/>
</svg>