<svg xmlns="http://www.w3.org/2000/svg" width="46" height="46" viewBox="0 0 46 46" fill="none">
<rect width="46" height="46" rx="7.66667" fill="#E5E7EB"/>
<path fill-rule="evenodd" clip-rule="evenodd" d="M33.3435 16.3066C34.6877 16.3066 35.7773 17.3963 35.7773 18.7405V30.9096V30.9098V35.7773L30.4535 30.9098H18.7403C17.3961 30.9098 16.3064 29.8201 16.3064 28.476V18.7405C16.3064 17.3963 17.3961 16.3066 18.7403 16.3066H33.3435Z" fill="#9CA3AF"/>
<path fill-rule="evenodd" clip-rule="evenodd" d="M15.0902 13.873C13.746 13.873 12.6563 14.9627 12.6563 16.3069V27.2593H29.6934C31.0375 27.2593 32.1272 26.1696 32.1272 24.8254V16.3069C32.1272 14.9627 31.0375 13.873 29.6934 13.873H15.0902ZM12.6562 27.2595V32.1273L18.7409 27.2595H12.6562Z" fill="#E5E7EB"/>
<path fill-rule="evenodd" clip-rule="evenodd" d="M12.6546 10.2217C11.3104 10.2217 10.2207 11.3114 10.2207 12.6555V24.8249H27.2577C28.6019 24.8249 29.6916 23.7352 29.6916 22.391V12.6555C29.6916 11.3114 28.6019 10.2217 27.2577 10.2217H12.6546ZM10.2207 24.825V29.6928L16.3054 24.825H10.2207Z" fill="#9CA3AF"/>
</svg>