<svg xmlns="http://www.w3.org/2000/svg" width="20" height="20" viewBox="0 0 20 20" fill="none">
<path d="M1.66699 10.1703C1.66699 8.26323 1.66699 7.30972 2.09966 6.51928C2.53233 5.72883 3.32278 5.23825 4.90369 4.2571L6.57035 3.22272C8.24148 2.18557 9.07705 1.66699 10.0003 1.66699C10.9236 1.66699 11.7592 2.18557 13.4303 3.22272L15.097 4.2571C16.6779 5.23825 17.4683 5.72883 17.901 6.51928C18.3337 7.30972 18.3337 8.26323 18.3337 10.1703V11.4378C18.3337 14.6885 18.3337 16.3139 17.3573 17.3238C16.381 18.3337 14.8097 18.3337 11.667 18.3337H8.33366C5.19096 18.3337 3.61961 18.3337 2.6433 17.3238C1.66699 16.3139 1.66699 14.6885 1.66699 11.4378V10.1703Z" stroke="#1D4ED8" stroke-width="1.25"/>
<path d="M12.5 11H7.5" stroke="#1D4ED8" stroke-width="1.25" stroke-linecap="round"/>
</svg>