<svg xmlns="http://www.w3.org/2000/svg" width="25" height="24" viewBox="0 0 25 24" fill="none">
<path d="M2.49902 12C2.49902 8.22876 2.49902 6.34315 3.6706 5.17157C4.84217 4 6.72779 4 10.499 4H14.499C18.2703 4 20.1559 4 21.3274 5.17157C22.499 6.34315 22.499 8.22876 22.499 12C22.499 15.7712 22.499 17.6569 21.3274 18.8284C20.1559 20 18.2703 20 14.499 20H10.499C6.72779 20 4.84217 20 3.6706 18.8284C2.49902 17.6569 2.49902 15.7712 2.49902 12Z" stroke="#2563EB" stroke-width="1.5"/>
<path d="M6.49902 8L8.65792 9.79908C10.4946 11.3296 11.4129 12.0949 12.499 12.0949C13.5852 12.0949 14.5035 11.3296 16.3401 9.79908L18.499 8" stroke="#2563EB" stroke-width="1.5" stroke-linecap="round"/>
</svg>