<svg
    xmlns="http://www.w3.org/2000/svg"
    width="23"
    height="19"
    viewBox="0 0 23 19"
    fill="none"
  >
    <path
      d="M0.266602 18.8986V16.3709H22.0254C22.4423 16.3709 22.6508 16.7965 22.6508 17.6478C22.6508 18.4816 22.4423 18.8986 22.0254 18.8986H0.266602ZM19.1329 12.0973C18.4554 11.8367 17.7431 11.5066 16.9961 11.1071C16.2491 10.7075 15.5195 10.2558 14.8072 9.75205C14.1123 9.23088 13.4609 8.67496 12.8528 8.08431C12.2622 7.49365 11.7931 6.87693 11.4457 6.23415C11.0982 6.84219 10.6292 7.45022 10.0385 8.05825C9.44786 8.66628 8.7964 9.23956 8.08414 9.7781C7.37187 10.3166 6.64224 10.8118 5.89523 11.2634C5.14822 11.7151 4.45332 12.0799 3.81055 12.3579C3.61945 12.4448 3.44573 12.4013 3.28938 12.2276C3.13303 12.0539 2.93325 11.7933 2.69004 11.4458C2.41208 11.0463 2.24705 10.751 2.19493 10.5599C2.16018 10.3688 2.22967 10.2298 2.40339 10.1429C3.93215 9.3438 5.26114 8.5273 6.39034 7.69343C7.51954 6.85956 8.36209 5.99963 8.91801 5.11364C9.31757 4.50561 9.56078 3.93232 9.64764 3.39378C9.73451 2.83787 9.77794 2.29064 9.77794 1.7521V0.136475H12.905V1.85633C12.905 2.42962 12.9484 2.95948 13.0352 3.4459C13.1221 3.93232 13.374 4.48824 13.7909 5.11364C14.1036 5.58269 14.5119 6.05175 15.0157 6.5208C15.5195 6.97248 16.058 7.40679 16.6313 7.82372C17.222 8.24066 17.83 8.63153 18.4554 8.99635C19.0982 9.36117 19.7062 9.67387 20.2795 9.93446C20.4706 10.0213 20.5488 10.1603 20.514 10.3514C20.4793 10.5251 20.349 10.8118 20.1231 11.2113C19.9147 11.5935 19.741 11.8628 19.602 12.0191C19.4804 12.1581 19.324 12.1842 19.1329 12.0973Z"
      fill="#2563EB"
    />
  </svg>