 <svg
    xmlns="http://www.w3.org/2000/svg"
    width="24"
    height="20"
    viewBox="0 0 24 20"
    fill="none"
  >
    <path
      d="M18.9099 6.49472C18.9099 7.32859 18.7709 8.11035 18.493 8.83998C18.215 9.55225 17.8241 10.1863 17.3203 10.7422C16.8339 11.2982 16.2519 11.7585 15.5744 12.1233C14.9143 12.4882 14.1846 12.7401 13.3855 12.879V16.5012H22.6363C23.0532 16.5012 23.2617 16.9268 23.2617 17.778C23.2617 18.6119 23.0532 19.0288 22.6363 19.0288H0.877441V16.5012H10.493V12.853C9.71126 12.6966 8.99031 12.436 8.33016 12.0712C7.67001 11.7064 7.09673 11.246 6.6103 10.6901C6.14125 10.1342 5.76775 9.50882 5.48979 8.81392C5.2292 8.10166 5.09891 7.32859 5.09891 6.49472C5.09891 5.53924 5.27263 4.66194 5.62008 3.86282C5.9849 3.06369 6.47132 2.37748 7.07935 1.8042C7.70476 1.23091 8.43439 0.787919 9.26826 0.475217C10.1195 0.162516 11.0316 0.00616455 12.0044 0.00616455C12.9773 0.00616455 13.8806 0.162516 14.7145 0.475217C15.5657 0.787919 16.2954 1.23091 16.9034 1.8042C17.5288 2.37748 18.0152 3.06369 18.3627 3.86282C18.7275 4.66194 18.9099 5.53924 18.9099 6.49472ZM16.0435 6.49472C16.0435 5.90406 15.9305 5.36552 15.7047 4.8791C15.4962 4.3753 15.2096 3.95836 14.8448 3.62829C14.48 3.28084 14.0543 3.01157 13.5679 2.82048C13.0815 2.62938 12.5603 2.53384 12.0044 2.53384C11.4485 2.53384 10.9273 2.62938 10.4409 2.82048C9.95447 3.01157 9.52885 3.28084 9.16403 3.62829C8.79921 3.95836 8.50388 4.3753 8.27804 4.8791C8.06958 5.36552 7.96534 5.90406 7.96534 6.49472C7.96534 7.10275 8.06958 7.64998 8.27804 8.1364C8.50388 8.62283 8.79921 9.03976 9.16403 9.38721C9.52885 9.71728 9.95447 9.97787 10.4409 10.169C10.9273 10.3601 11.4485 10.4556 12.0044 10.4556C12.5603 10.4556 13.0815 10.3601 13.5679 10.169C14.0543 9.97787 14.48 9.71728 14.8448 9.38721C15.2096 9.03976 15.4962 8.62283 15.7047 8.1364C15.9305 7.64998 16.0435 7.10275 16.0435 6.49472Z"
      fill="#2563EB"
    />
  </svg>
  
  
  