<svg
    xmlns="http://www.w3.org/2000/svg"
    width="20"
    height="23"
    viewBox="0 0 20 23"
    fill="none"
  >
    <path
      d="M19.1224 21.9409C19.1224 22.1493 18.9835 22.297 18.7055 22.3839C18.4275 22.4881 18.0801 22.5402 17.6632 22.5402C17.2462 22.5402 16.8988 22.4881 16.6208 22.3839C16.3602 22.297 16.23 22.1493 16.23 21.9409V9.40674H10.2886V6.87907H16.23V0.494751H19.1224V21.9409ZM3.85219 16.8073C3.55686 16.8073 3.2181 16.6857 2.83591 16.4425C2.47109 16.1993 2.1497 15.93 1.87175 15.6347C1.61116 15.3741 1.37664 15.0788 1.16817 14.7487C0.959702 14.4187 0.855469 14.132 0.855469 13.8888V2.29278H3.74796V13.4197C3.74796 13.7151 3.80876 13.9322 3.93037 14.0712C4.05197 14.2102 4.26044 14.2797 4.55577 14.2797H12.6599C13.0769 14.2797 13.2853 14.7053 13.2853 15.5565C13.2853 16.3904 13.0769 16.8073 12.6599 16.8073H3.85219Z"
      fill="#2563EB"
    />
  </svg>