<svg
    xmlns="http://www.w3.org/2000/svg"
    width="21"
    height="23"
    viewBox="0 0 21 23"
    fill="none"
  >
    <path
      d="M9.48254 4.82045H5.86041V14.41H9.48254V4.82045ZM14.3815 2.29278C14.7985 2.29278 15.0069 2.71841 15.0069 3.56965C15.0069 4.40352 14.7985 4.82045 14.3815 4.82045H12.4271V14.41H15.1633C15.5802 14.41 15.7887 14.8356 15.7887 15.6868C15.7887 16.5207 15.5802 16.9376 15.1633 16.9376H0.466309V14.41H2.94186V4.82045H0.466309V2.29278H14.3815ZM20.0623 21.9409C20.0623 22.1493 19.9233 22.297 19.6453 22.3839C19.3847 22.4881 19.046 22.5402 18.6291 22.5402C18.2121 22.5402 17.8647 22.4881 17.5867 22.3839C17.3088 22.297 17.1698 22.1493 17.1698 21.9409V0.494751H20.0623V21.9409Z"
      fill="#2563EB"
    />
  </svg>