<svg width="17" height="16" viewBox="0 0 17 16" fill="none" xmlns="http://www.w3.org/2000/svg">
<g id="Linear / Messages, Conversation / Pen 2">
<path id="Vector" d="M3.16602 14.6666H13.8327" stroke="#2563EB" stroke-linecap="round"/>
<path id="Vector_2" d="M9.75805 2.44199L10.2524 1.94766C11.0714 1.12861 12.3994 1.12861 13.2184 1.94766C14.0374 2.7667 14.0374 4.09463 13.2184 4.91367L12.7241 5.40801M9.75805 2.44199C9.75805 2.44199 9.81984 3.49245 10.7467 4.41933C11.6736 5.34621 12.7241 5.40801 12.7241 5.40801M9.75805 2.44199L5.21339 6.98665C4.90557 7.29447 4.75166 7.44838 4.61929 7.61809C4.46315 7.81827 4.32929 8.03487 4.22006 8.26405C4.12747 8.45834 4.05864 8.66483 3.92098 9.07781L3.33765 10.8278M12.7241 5.40801L8.1794 9.95267C7.87158 10.2605 7.71767 10.4144 7.54797 10.5468C7.34778 10.7029 7.13118 10.8368 6.902 10.946C6.70772 11.0386 6.50123 11.1074 6.08824 11.2451L4.33824 11.8284M4.33824 11.8284L3.91046 11.971C3.70723 12.0387 3.48317 11.9859 3.33169 11.8344C3.1802 11.6829 3.12731 11.4588 3.19505 11.2556L3.33765 10.8278M4.33824 11.8284L3.33765 10.8278" stroke="#2563EB"/>
</g>
</svg>
