<svg width="28" height="28" viewBox="0 0 28 28" fill="none" xmlns="http://www.w3.org/2000/svg">
<g id="&#236;&#160;&#128;&#236;&#158;&#165;&#236;&#149;&#132;&#236;&#157;&#180;&#236;&#189;&#152;">
<path id="Vector" d="M10.6786 6.30975C12.1564 3.65879 12.8952 2.33331 13.9999 2.33331C15.1046 2.33331 15.8435 3.65879 17.3212 6.30975L17.7035 6.99558C18.1235 7.7489 18.3334 8.12556 18.6608 8.37409C18.9882 8.62261 19.3959 8.71486 20.2114 8.89937L20.9538 9.06735C23.8234 9.71663 25.2582 10.0413 25.5996 11.139C25.941 12.2367 24.9628 13.3806 23.0065 15.6682L22.5003 16.2601C21.9444 16.9102 21.6665 17.2352 21.5414 17.6373C21.4164 18.0394 21.4584 18.4731 21.5424 19.3405L21.619 20.1301C21.9147 23.1823 22.0626 24.7085 21.1689 25.3869C20.2752 26.0653 18.9318 25.4468 16.245 24.2097L15.5499 23.8896C14.7863 23.5381 14.4046 23.3623 13.9999 23.3623C13.5953 23.3623 13.2135 23.5381 12.45 23.8896L11.7549 24.2097C9.06804 25.4468 7.72462 26.0653 6.83092 25.3869C5.93723 24.7085 6.08511 23.1823 6.38088 20.1301L6.4574 19.3405C6.54145 18.4731 6.58347 18.0394 6.45843 17.6373C6.33338 17.2352 6.05541 16.9102 5.49949 16.2601L4.99337 15.6682C3.03704 13.3806 2.05888 12.2367 2.40024 11.139C2.74161 10.0413 4.17642 9.71663 7.04604 9.06735L7.78845 8.89937C8.60391 8.71486 9.01164 8.62261 9.33902 8.37409C9.6664 8.12556 9.87636 7.7489 10.2963 6.99559L10.6786 6.30975Z" fill="#2563EB" stroke="#1D4ED8"/>
</g>
</svg>
